<?xml version="1.0" encoding="UTF-8"?>
<!DOCTYPE svg PUBLIC "-//W3C//DTD SVG 1.1//EN" "http://www.w3.org/Graphics/SVG/1.1/DTD/svg11.dtd">
<!-- Creator: CorelDRAW 2019 (64-Bit) -->
<svg xmlns="http://www.w3.org/2000/svg" xml:space="preserve" width="97.8958mm" height="97.8958mm" version="1.1" shape-rendering="geometricPrecision" text-rendering="geometricPrecision" image-rendering="optimizeQuality" fill-rule="evenodd" clip-rule="evenodd"
viewBox="0 0 9789.58 9789.58"
 xmlns:xlink="http://www.w3.org/1999/xlink"
 xmlns:xodm="http://www.corel.com/coreldraw/odm/2003">
 <g id="cuerpo" visibility="hidden">
  <metadata id="CorelCorpID_0Corel-Layer"/>
 </g>
 <g id="sarape">
  <metadata id="CorelCorpID_1Corel-Layer"/>
  <polygon fill="#FF8D35" points="4902.11,4844.77 8134.62,6673.79 4902.11,9294.71 1586.17,6673.79 "/>
  <polygon fill="#7CC5D6" points="4898.28,5395.39 5541.61,5902.05 4898.28,6628.06 4238.36,5902.05 "/>
  <polygon fill="#FF8D35" points="4902.11,5031.63 5545.44,5538.29 4902.11,6264.3 4242.19,5538.29 "/>
  <g>
   <polygon fill="#F35B59" points="4902.11,8334.63 2328.56,6264.3 1586.17,6673.79 4902.11,9294.71 8134.62,6673.79 7426.76,6273.27 "/>
   <path id="1" fill="#F35B59" d="M4889.61 8350.18l-2563.12 -2061.94 -704.41 388.55 3279.85 2592.4 3197.4 -2592.46 -670.52 -379.39 -2514.12 2052.76c-7.43,6.04 -17.91,5.85 -25.07,0.07l-0.01 0.01zm12.5 -15.55l-2573.55 -2070.33 -742.39 409.49 3315.94 2620.92 3232.51 -2620.92 -707.86 -400.52 -2524.65 2061.36z"/>
  </g>
  <path fill="#EF2143" d="M7426.76 6273.27l-854.22 697.46c-219.49,743.56 -1670.43,1571.01 -1670.43,2323.98l3232.51 -2620.92 -707.86 -400.52z"/>
  <path fill="#FF6600" d="M7426.76 6273.27l-1341.89 -759.27c-58.43,-12.64 -117.54,-28.52 -177.3,-47.8l-90.17 417.99 -63.37 65.27 -48.95 12.09c788.85,304.23 974.45,646.74 867.46,1009.18l854.22 -697.46z"/>
  <g>
   <path fill="yellow" fill-rule="nonzero" d="M2626.45 6128.13l-32.72 41.6 -20.8 -16.36 32.72 -41.6 20.8 16.36zm2259.3 1844.5l-2292.02 -1802.9 32.72 -41.6 2292.02 1802.9 0.39 41.28 -33.11 0.32zm2250.18 -1813.05l-2217.07 1812.73 -33.5 -40.96 2217.07 -1812.73 33.5 40.96zm0 0l-33.5 -40.96 20.48 -16.75 33.5 40.96 -20.48 16.75z"/>
  </g>
  <g id="dotts">
   <circle fill="#F6BC00" stroke="#F6BC00" stroke-width="20" stroke-miterlimit="22.9256" cx="2213.21" cy="6690.89" r="62.23"/>
   <path fill="#F6BC00" stroke="#F6BC00" stroke-width="20" stroke-miterlimit="22.9256" d="M2467.36 6828.57c34.37,0 62.23,27.86 62.23,62.23 0,34.37 -27.86,62.23 -62.23,62.23 -34.37,0 -62.23,-27.86 -62.23,-62.23 0,-34.37 27.86,-62.23 62.23,-62.23z"/>
   <path fill="#F6BC00" stroke="#F6BC00" stroke-width="20" stroke-miterlimit="22.9256" d="M2721.5 7028.48c34.37,0 62.23,27.86 62.23,62.23 0,34.37 -27.86,62.23 -62.23,62.23 -34.37,0 -62.23,-27.86 -62.23,-62.23 0,-34.37 27.86,-62.23 62.23,-62.23z"/>
   <path fill="#F6BC00" stroke="#F6BC00" stroke-width="20" stroke-miterlimit="22.9256" d="M2975.64 7228.39c34.37,0 62.23,27.86 62.23,62.23 0,34.37 -27.86,62.23 -62.23,62.23 -34.37,0 -62.23,-27.86 -62.23,-62.23 0,-34.37 27.86,-62.23 62.23,-62.23z"/>
   <path fill="#F6BC00" stroke="#F6BC00" stroke-width="20" stroke-miterlimit="22.9256" d="M3229.78 7428.3c34.37,0 62.23,27.86 62.23,62.23 0,34.37 -27.86,62.23 -62.23,62.23 -34.37,0 -62.23,-27.86 -62.23,-62.23 0,-34.37 27.86,-62.23 62.23,-62.23z"/>
   <path fill="#F6BC00" stroke="#F6BC00" stroke-width="20" stroke-miterlimit="22.9256" d="M3483.93 7628.21c34.37,0 62.23,27.86 62.23,62.23 0,34.37 -27.86,62.23 -62.23,62.23 -34.37,0 -62.23,-27.86 -62.23,-62.23 0,-34.37 27.86,-62.23 62.23,-62.23z"/>
   <path fill="#F6BC00" stroke="#F6BC00" stroke-width="20" stroke-miterlimit="22.9256" d="M3738.07 7828.12c34.37,0 62.23,27.86 62.23,62.23 0,34.37 -27.86,62.23 -62.23,62.23 -34.37,0 -62.23,-27.86 -62.23,-62.23 0,-34.37 27.86,-62.23 62.23,-62.23z"/>
   <path fill="#F6BC00" stroke="#F6BC00" stroke-width="20" stroke-miterlimit="22.9256" d="M3992.21 8028.03c34.37,0 62.23,27.86 62.23,62.23 0,34.37 -27.86,62.23 -62.23,62.23 -34.37,0 -62.23,-27.86 -62.23,-62.23 0,-34.37 27.86,-62.23 62.23,-62.23z"/>
   <path fill="#F6BC00" stroke="#F6BC00" stroke-width="20" stroke-miterlimit="22.9256" d="M4246.35 8227.94c34.37,0 62.23,27.86 62.23,62.23 0,34.37 -27.86,62.23 -62.23,62.23 -34.37,0 -62.23,-27.86 -62.23,-62.23 0,-34.37 27.86,-62.23 62.23,-62.23z"/>
   <path fill="#F6BC00" stroke="#F6BC00" stroke-width="20" stroke-miterlimit="22.9256" d="M4500.5 8427.85c34.37,0 62.23,27.86 62.23,62.23 0,34.37 -27.86,62.23 -62.23,62.23 -34.37,0 -62.23,-27.86 -62.23,-62.23 0,-34.37 27.86,-62.23 62.23,-62.23z"/>
   <path fill="#F6BC00" stroke="#F6BC00" stroke-width="20" stroke-miterlimit="22.9256" d="M4754.63 8627.75c34.37,0 62.23,27.86 62.23,62.23 0,34.37 -27.86,62.23 -62.23,62.23 -34.37,0 -62.23,-27.86 -62.23,-62.23 0,-34.37 27.86,-62.23 62.23,-62.23z"/>
   <path fill="#F6BC00" stroke="#F6BC00" stroke-width="20" stroke-miterlimit="22.9256" d="M5007.19 8657.87c34.37,0 62.23,27.86 62.23,62.23 0,34.37 -27.86,62.23 -62.23,62.23 -34.37,0 -62.23,-27.86 -62.23,-62.23 0,-34.37 27.86,-62.23 62.23,-62.23z"/>
   <path fill="#F6BC00" stroke="#F6BC00" stroke-width="20" stroke-miterlimit="22.9256" d="M5257.54 8453.24c34.37,0 62.23,27.86 62.23,62.23 0,34.37 -27.86,62.23 -62.23,62.23 -34.37,0 -62.23,-27.86 -62.23,-62.23 0,-34.37 27.86,-62.23 62.23,-62.23z"/>
   <path fill="#F6BC00" stroke="#F6BC00" stroke-width="20" stroke-miterlimit="22.9256" d="M5507.9 8248.61c34.37,0 62.23,27.86 62.23,62.23 0,34.37 -27.86,62.23 -62.23,62.23 -34.37,0 -62.23,-27.86 -62.23,-62.23 0,-34.37 27.86,-62.23 62.23,-62.23z"/>
   <path fill="#F6BC00" stroke="#F6BC00" stroke-width="20" stroke-miterlimit="22.9256" d="M5758.26 8043.98c34.37,0 62.23,27.86 62.23,62.23 0,34.37 -27.86,62.23 -62.23,62.23 -34.37,0 -62.23,-27.86 -62.23,-62.23 0,-34.37 27.86,-62.23 62.23,-62.23z"/>
   <path fill="#F6BC00" stroke="#F6BC00" stroke-width="20" stroke-miterlimit="22.9256" d="M6008.62 7839.35c34.37,0 62.23,27.86 62.23,62.23 0,34.37 -27.86,62.23 -62.23,62.23 -34.37,0 -62.23,-27.86 -62.23,-62.23 0,-34.37 27.86,-62.23 62.23,-62.23z"/>
   <path fill="#F6BC00" stroke="#F6BC00" stroke-width="20" stroke-miterlimit="22.9256" d="M6258.97 7634.72c34.37,0 62.23,27.86 62.23,62.23 0,34.37 -27.86,62.23 -62.23,62.23 -34.37,0 -62.23,-27.86 -62.23,-62.23 0,-34.37 27.86,-62.23 62.23,-62.23z"/>
   <path fill="#F6BC00" stroke="#F6BC00" stroke-width="20" stroke-miterlimit="22.9256" d="M6509.33 7430.09c34.37,0 62.23,27.86 62.23,62.23 0,34.37 -27.86,62.23 -62.23,62.23 -34.37,0 -62.23,-27.86 -62.23,-62.23 0,-34.37 27.86,-62.23 62.23,-62.23z"/>
   <path fill="#F6BC00" stroke="#F6BC00" stroke-width="20" stroke-miterlimit="22.9256" d="M6759.68 7225.46c34.37,0 62.23,27.86 62.23,62.23 0,34.37 -27.86,62.23 -62.23,62.23 -34.37,0 -62.23,-27.86 -62.23,-62.23 0,-34.37 27.86,-62.23 62.23,-62.23z"/>
   <path fill="#F6BC00" stroke="#F6BC00" stroke-width="20" stroke-miterlimit="22.9256" d="M7010.04 7020.83c34.37,0 62.23,27.86 62.23,62.23 0,34.37 -27.86,62.23 -62.23,62.23 -34.37,0 -62.23,-27.86 -62.23,-62.23 0,-34.37 27.86,-62.23 62.23,-62.23z"/>
   <path fill="#F6BC00" stroke="#F6BC00" stroke-width="20" stroke-miterlimit="22.9256" d="M7260.39 6816.2c34.37,0 62.23,27.86 62.23,62.23 0,34.37 -27.86,62.23 -62.23,62.23 -34.37,0 -62.23,-27.86 -62.23,-62.23 0,-34.37 27.86,-62.23 62.23,-62.23z"/>
   <circle fill="#F6BC00" stroke="#F6BC00" stroke-width="20" stroke-miterlimit="22.9256" cx="7510.75" cy="6673.8" r="62.23"/>
  </g>
  <g>
   <path id="yellow-line" fill="yellow" fill-rule="nonzero" d="M2626.45 6128.13l-32.72 41.6 -20.8 -16.36 32.72 -41.6 20.8 16.36zm2259.3 1844.5l-2292.02 -1802.9 32.72 -41.6 2292.02 1802.9 0.39 41.28 -33.11 0.32zm2250.18 -1813.05l-2217.07 1812.73 -33.5 -40.96 2217.07 -1812.73 33.5 40.96zm0 0l-33.5 -40.96 20.48 -16.75 33.5 40.96 -20.48 16.75z"/>
  </g>
  <g>
   <g>
    <path fill="#FFF8D5" d="M1586.04 6673.62c112.8,149.71 154.36,328.82 165.68,520.43 0,0 14.27,-305.12 105.94,-305.75l-271.62 -214.68z"/>
    <path id="1" fill="#FFF8D5" d="M1665.37 6761.7c25.34,48.18 45.24,98.58 60.7,150.79 11.35,38.33 20.31,77.62 27.3,117.69 13.07,-59.91 33.73,-119.67 66.01,-146.75l-154.01 -121.73zm86.35 432.35c0,0 14.27,-305.12 105.94,-305.75l-271.62 -214.68c112.8,149.71 154.36,328.82 165.68,520.43z"/>
   </g>
   <g>
    <path fill="#FFF8D5" d="M1839.75 6874.16c112.8,149.71 154.36,328.82 165.68,520.43 0,0 14.27,-305.12 105.94,-305.75 -90.54,-71.56 -181.08,-143.12 -271.62,-214.68z"/>
    <path id="1" fill="#FFF8D5" d="M1919.08 6962.24c25.34,48.18 45.24,98.58 60.7,150.79 11.35,38.33 20.31,77.62 27.3,117.69 13.07,-59.91 33.73,-119.67 66.01,-146.75l-154.01 -121.73zm86.35 432.35c0,0 14.27,-305.12 105.94,-305.75 -90.54,-71.56 -181.08,-143.12 -271.62,-214.68 112.8,149.71 154.36,328.82 165.68,520.43z"/>
   </g>
   <g>
    <path fill="#FFF8D5" d="M2093.46 7074.7c112.8,149.71 154.36,328.82 165.68,520.43 0,0 14.27,-305.12 105.94,-305.75 -90.54,-71.56 -181.08,-143.12 -271.62,-214.68z"/>
    <path id="1" fill="#FFF8D5" d="M2172.79 7162.78c25.34,48.18 45.24,98.58 60.7,150.79 11.35,38.33 20.31,77.62 27.3,117.69 13.07,-59.91 33.73,-119.67 66.01,-146.75l-154.01 -121.73zm86.35 432.35c0,0 14.27,-305.12 105.94,-305.75 -90.54,-71.56 -181.08,-143.12 -271.62,-214.68 112.8,149.71 154.36,328.82 165.68,520.43z"/>
   </g>
   <g>
    <path fill="#FFF8D5" d="M2347.17 7275.24c112.8,149.71 154.36,328.82 165.68,520.43 0,0 14.27,-305.12 105.94,-305.75 -90.54,-71.56 -181.08,-143.12 -271.62,-214.68z"/>
    <path id="1" fill="#FFF8D5" d="M2426.5 7363.32c25.34,48.18 45.24,98.58 60.7,150.79 11.35,38.33 20.31,77.62 27.3,117.69 13.07,-59.91 33.73,-119.67 66.01,-146.75l-154.01 -121.73zm86.35 432.35c0,0 14.27,-305.12 105.94,-305.75 -90.54,-71.56 -181.08,-143.12 -271.62,-214.68 112.8,149.71 154.36,328.82 165.68,520.43z"/>
   </g>
   <g>
    <path fill="#FFF8D5" d="M2600.88 7475.77c112.8,149.71 154.36,328.82 165.68,520.43 0,0 14.27,-305.12 105.94,-305.75 -90.54,-71.56 -181.08,-143.12 -271.62,-214.68z"/>
    <path id="1" fill="#FFF8D5" d="M2680.21 7563.85c25.34,48.18 45.24,98.58 60.7,150.79 11.35,38.33 20.31,77.62 27.3,117.69 13.07,-59.91 33.73,-119.67 66.01,-146.75l-154.01 -121.73zm86.35 432.35c0,0 14.27,-305.12 105.94,-305.75 -90.54,-71.56 -181.08,-143.12 -271.62,-214.68 112.8,149.71 154.36,328.82 165.68,520.43z"/>
   </g>
   <g>
    <path fill="#FFF8D5" d="M2854.59 7676.31c112.8,149.71 154.36,328.82 165.68,520.43 0,0 14.27,-305.12 105.94,-305.75 -90.54,-71.56 -181.08,-143.12 -271.62,-214.68z"/>
    <path id="1" fill="#FFF8D5" d="M2933.92 7764.39c25.34,48.18 45.24,98.58 60.7,150.79 11.35,38.33 20.31,77.62 27.3,117.69 13.07,-59.91 33.73,-119.67 66.01,-146.75l-154.01 -121.73zm86.35 432.35c0,0 14.27,-305.12 105.94,-305.75 -90.54,-71.56 -181.08,-143.12 -271.62,-214.68 112.8,149.71 154.36,328.82 165.68,520.43z"/>
   </g>
   <g>
    <path fill="#FFF8D5" d="M3108.3 7876.85c112.8,149.71 154.36,328.82 165.68,520.43 0,0 14.27,-305.12 105.94,-305.75 -90.54,-71.56 -181.08,-143.12 -271.62,-214.68z"/>
    <path id="1" fill="#FFF8D5" d="M3187.63 7964.93c25.34,48.18 45.24,98.58 60.7,150.79 11.35,38.33 20.31,77.62 27.3,117.69 13.07,-59.91 33.73,-119.67 66.01,-146.75l-154.01 -121.73zm86.35 432.35c0,0 14.27,-305.12 105.94,-305.75 -90.54,-71.56 -181.08,-143.12 -271.62,-214.68 112.8,149.71 154.36,328.82 165.68,520.43z"/>
   </g>
   <g>
    <path fill="#FFF8D5" d="M3362 8077.39c112.8,149.71 154.36,328.82 165.68,520.43 0,0 14.27,-305.12 105.94,-305.75 -90.54,-71.56 -181.08,-143.12 -271.62,-214.68z"/>
    <path id="1" fill="#FFF8D5" d="M3441.33 8165.47c25.34,48.18 45.24,98.58 60.7,150.79 11.35,38.33 20.31,77.62 27.3,117.69 13.07,-59.91 33.73,-119.67 66.01,-146.75l-154.01 -121.73zm86.35 432.35c0,0 14.27,-305.12 105.94,-305.75 -90.54,-71.56 -181.08,-143.12 -271.62,-214.68 112.8,149.71 154.36,328.82 165.68,520.43z"/>
   </g>
   <g>
    <path fill="#FFF8D5" d="M3615.71 8277.93c112.8,149.71 154.36,328.82 165.68,520.43 0,0 14.27,-305.12 105.94,-305.75 -90.54,-71.56 -181.08,-143.12 -271.62,-214.68z"/>
    <path id="1" fill="#FFF8D5" d="M3695.04 8366.01c25.34,48.18 45.24,98.58 60.7,150.79 11.35,38.33 20.31,77.62 27.3,117.69 13.07,-59.91 33.73,-119.67 66.01,-146.75l-154.01 -121.73zm86.35 432.35c0,0 14.27,-305.12 105.94,-305.75 -90.54,-71.56 -181.08,-143.12 -271.62,-214.68 112.8,149.71 154.36,328.82 165.68,520.43z"/>
   </g>
   <g>
    <path fill="#FFF8D5" d="M3869.42 8478.47c112.8,149.71 154.36,328.82 165.68,520.43 0,0 14.27,-305.12 105.94,-305.75 -90.54,-71.56 -181.08,-143.12 -271.62,-214.68z"/>
    <path id="1" fill="#FFF8D5" d="M3948.75 8566.55c25.34,48.18 45.24,98.58 60.7,150.79 11.35,38.33 20.31,77.62 27.3,117.69 13.07,-59.91 33.73,-119.67 66.01,-146.75l-154.01 -121.73zm86.35 432.35c0,0 14.27,-305.12 105.94,-305.75 -90.54,-71.56 -181.08,-143.12 -271.62,-214.68 112.8,149.71 154.36,328.82 165.68,520.43z"/>
   </g>
   <g>
    <path fill="#FFF8D5" d="M4123.13 8679c112.8,149.71 154.36,328.82 165.68,520.43 0,0 14.27,-305.12 105.94,-305.75 -90.54,-71.56 -181.08,-143.12 -271.62,-214.68z"/>
    <path id="1" fill="#FFF8D5" d="M4202.46 8767.08c25.34,48.18 45.24,98.58 60.7,150.79 11.35,38.33 20.31,77.62 27.3,117.69 13.07,-59.91 33.73,-119.67 66.01,-146.75l-154.01 -121.73zm86.35 432.35c0,0 14.27,-305.12 105.94,-305.75 -90.54,-71.56 -181.08,-143.12 -271.62,-214.68 112.8,149.71 154.36,328.82 165.68,520.43z"/>
   </g>
   <g>
    <path fill="#FFF8D5" d="M4376.84 8879.54c112.8,149.71 154.36,328.82 165.68,520.43 0,0 14.27,-305.12 105.94,-305.75 -90.54,-71.56 -181.08,-143.12 -271.62,-214.68z"/>
    <path id="1" fill="#FFF8D5" d="M4456.17 8967.62c25.34,48.18 45.24,98.58 60.7,150.79 11.35,38.33 20.31,77.62 27.3,117.69 13.07,-59.91 33.73,-119.67 66.01,-146.75l-154.01 -121.73zm86.35 432.35c0,0 14.27,-305.12 105.94,-305.75 -90.54,-71.56 -181.08,-143.12 -271.62,-214.68 112.8,149.71 154.36,328.82 165.68,520.43z"/>
   </g>
   <g>
    <path fill="#FFF8D5" d="M4630.55 9080.08c112.8,149.71 154.36,328.82 165.68,520.43 0,0 14.27,-305.12 105.94,-305.75l-271.62 -214.68z"/>
    <path id="1" fill="#FFF8D5" d="M4709.88 9168.16c25.34,48.18 45.24,98.58 60.7,150.79 11.35,38.33 20.31,77.62 27.3,117.69 13.07,-59.91 33.73,-119.67 66.01,-146.75l-154.01 -121.73zm86.35 432.35c0,0 14.27,-305.12 105.94,-305.75l-271.62 -214.68c112.8,149.71 154.36,328.82 165.68,520.43z"/>
   </g>
   <g>
    <path fill="#FFF8D5" d="M5171.15 9076.81c-111.01,151.04 -150.43,330.64 -159.47,522.37 0,0 -17.9,-304.93 -109.57,-304.47l269.04 -217.9z"/>
    <path id="1" fill="#FFF8D5" d="M5011.68 9599.18c0,0 -17.9,-304.93 -109.57,-304.47l269.04 -217.9c-111.01,151.04 -150.43,330.64 -159.47,522.37zm22.28 -281.83c14.84,-52.37 34.13,-103 58.91,-151.48l-152.5 123.51c32.58,26.69 53.93,86.18 67.72,145.92 6.5,-40.15 14.98,-79.52 25.87,-117.95z"/>
   </g>
   <g>
    <path fill="#FFF8D5" d="M5399.3 8891.81c-111.01,151.04 -150.43,330.64 -159.47,522.37 0,0 -17.9,-304.93 -109.57,-304.47 89.68,-72.64 179.36,-145.27 269.04,-217.9z"/>
    <path id="1" fill="#FFF8D5" d="M5239.83 9414.18c0,0 -17.9,-304.93 -109.57,-304.47 89.68,-72.64 179.36,-145.27 269.04,-217.9 -111.01,151.04 -150.43,330.64 -159.47,522.37zm22.28 -281.83c14.84,-52.37 34.13,-103 58.91,-151.48l-152.5 123.51c32.58,26.69 53.93,86.18 67.72,145.92 6.5,-40.15 14.98,-79.52 25.87,-117.95z"/>
   </g>
   <g>
    <path fill="#FFF8D5" d="M5627.46 8706.8c-111.01,151.04 -150.43,330.64 -159.47,522.37 0,0 -17.9,-304.93 -109.57,-304.47 89.68,-72.64 179.36,-145.27 269.04,-217.9z"/>
    <path id="1" fill="#FFF8D5" d="M5467.99 9229.17c0,0 -17.9,-304.93 -109.57,-304.47 89.68,-72.64 179.36,-145.27 269.04,-217.9 -111.01,151.04 -150.43,330.64 -159.47,522.37zm22.28 -281.83c14.84,-52.37 34.13,-103 58.91,-151.48l-152.5 123.51c32.58,26.69 53.93,86.18 67.72,145.92 6.5,-40.15 14.98,-79.52 25.87,-117.95z"/>
   </g>
   <g>
    <path fill="#FFF8D5" d="M5855.61 8521.8c-111.01,151.04 -150.43,330.64 -159.47,522.37 0,0 -17.9,-304.93 -109.57,-304.47 89.68,-72.64 179.36,-145.27 269.04,-217.9z"/>
    <path id="1" fill="#FFF8D5" d="M5696.14 9044.17c0,0 -17.9,-304.93 -109.57,-304.47 89.68,-72.64 179.36,-145.27 269.04,-217.9 -111.01,151.04 -150.43,330.64 -159.47,522.37zm22.28 -281.83c14.84,-52.37 34.13,-103 58.91,-151.48l-152.5 123.51c32.58,26.69 53.93,86.18 67.72,145.92 6.5,-40.15 14.98,-79.52 25.87,-117.95z"/>
   </g>
   <g>
    <path fill="#FFF8D5" d="M6083.76 8336.79c-111.01,151.04 -150.43,330.64 -159.47,522.37 0,0 -17.9,-304.93 -109.57,-304.47 89.68,-72.64 179.36,-145.27 269.04,-217.9z"/>
    <path id="1" fill="#FFF8D5" d="M5924.29 8859.16c0,0 -17.9,-304.93 -109.57,-304.47 89.68,-72.64 179.36,-145.27 269.04,-217.9 -111.01,151.04 -150.43,330.64 -159.47,522.37zm22.28 -281.83c14.84,-52.37 34.13,-103 58.91,-151.48l-152.5 123.51c32.58,26.69 53.93,86.18 67.72,145.92 6.5,-40.15 14.98,-79.52 25.87,-117.95z"/>
   </g>
   <g>
    <path fill="#FFF8D5" d="M6311.92 8151.79c-111.01,151.04 -150.43,330.64 -159.47,522.37 0,0 -17.9,-304.93 -109.57,-304.47 89.68,-72.64 179.36,-145.27 269.04,-217.9z"/>
    <path id="1" fill="#FFF8D5" d="M6152.45 8674.16c0,0 -17.9,-304.93 -109.57,-304.47 89.68,-72.64 179.36,-145.27 269.04,-217.9 -111.01,151.04 -150.43,330.64 -159.47,522.37zm22.28 -281.83c14.84,-52.37 34.13,-103 58.91,-151.48l-152.5 123.51c32.58,26.69 53.93,86.18 67.72,145.92 6.5,-40.15 14.98,-79.52 25.87,-117.95z"/>
   </g>
   <g>
    <path fill="#FFF8D5" d="M6540.07 7966.79c-111.01,151.04 -150.43,330.64 -159.47,522.37 0,0 -17.9,-304.93 -109.57,-304.47 89.68,-72.64 179.36,-145.27 269.04,-217.9z"/>
    <path id="1" fill="#FFF8D5" d="M6380.6 8489.16c0,0 -17.9,-304.93 -109.57,-304.47 89.68,-72.64 179.36,-145.27 269.04,-217.9 -111.01,151.04 -150.43,330.64 -159.47,522.37zm22.28 -281.83c14.84,-52.37 34.13,-103 58.91,-151.48l-152.5 123.51c32.58,26.69 53.93,86.18 67.72,145.92 6.5,-40.15 14.98,-79.52 25.87,-117.95z"/>
   </g>
   <g>
    <path fill="#FFF8D5" d="M6768.22 7781.78c-111.01,151.04 -150.43,330.64 -159.47,522.37 0,0 -17.9,-304.93 -109.57,-304.47 89.68,-72.64 179.36,-145.27 269.04,-217.9z"/>
    <path id="1" fill="#FFF8D5" d="M6608.75 8304.15c0,0 -17.9,-304.93 -109.57,-304.47 89.68,-72.64 179.36,-145.27 269.04,-217.9 -111.01,151.04 -150.43,330.64 -159.47,522.37zm22.28 -281.83c14.84,-52.37 34.13,-103 58.91,-151.48l-152.5 123.51c32.58,26.69 53.93,86.18 67.72,145.92 6.5,-40.15 14.98,-79.52 25.87,-117.95z"/>
   </g>
   <g>
    <path fill="#FFF8D5" d="M6996.37 7596.78c-111.01,151.04 -150.43,330.64 -159.47,522.37 0,0 -17.9,-304.93 -109.57,-304.47 89.68,-72.64 179.36,-145.27 269.04,-217.9z"/>
    <path id="1" fill="#FFF8D5" d="M6836.9 8119.15c0,0 -17.9,-304.93 -109.57,-304.47 89.68,-72.64 179.36,-145.27 269.04,-217.9 -111.01,151.04 -150.43,330.64 -159.47,522.37zm22.28 -281.83c14.84,-52.37 34.13,-103 58.91,-151.48l-152.5 123.51c32.58,26.69 53.93,86.18 67.72,145.92 6.5,-40.15 14.98,-79.52 25.87,-117.95z"/>
   </g>
   <g>
    <path fill="#FFF8D5" d="M7224.53 7411.78c-111.01,151.04 -150.43,330.64 -159.47,522.37 0,0 -17.9,-304.93 -109.57,-304.47 89.68,-72.64 179.36,-145.27 269.04,-217.9z"/>
    <path id="1" fill="#FFF8D5" d="M7065.06 7934.15c0,0 -17.9,-304.93 -109.57,-304.47 89.68,-72.64 179.36,-145.27 269.04,-217.9 -111.01,151.04 -150.43,330.64 -159.47,522.37zm22.28 -281.83c14.84,-52.37 34.13,-103 58.91,-151.48l-152.5 123.51c32.58,26.69 53.93,86.18 67.72,145.92 6.5,-40.15 14.98,-79.52 25.87,-117.95z"/>
   </g>
   <g>
    <path fill="#FFF8D5" d="M7452.68 7226.77c-111.01,151.04 -150.43,330.64 -159.47,522.37 0,0 -17.9,-304.93 -109.57,-304.47 89.68,-72.64 179.36,-145.27 269.04,-217.9z"/>
    <path id="1" fill="#FFF8D5" d="M7293.21 7749.14c0,0 -17.9,-304.93 -109.57,-304.47 89.68,-72.64 179.36,-145.27 269.04,-217.9 -111.01,151.04 -150.43,330.64 -159.47,522.37zm22.28 -281.83c14.84,-52.37 34.13,-103 58.91,-151.48l-152.5 123.51c32.58,26.69 53.93,86.18 67.72,145.92 6.5,-40.15 14.98,-79.52 25.87,-117.95z"/>
   </g>
   <g>
    <path fill="#FFF8D5" d="M7680.83 7041.77c-111.01,151.04 -150.43,330.64 -159.47,522.37 0,0 -17.9,-304.93 -109.57,-304.47 89.68,-72.64 179.36,-145.27 269.04,-217.9z"/>
    <path id="1" fill="#FFF8D5" d="M7521.36 7564.14c0,0 -17.9,-304.93 -109.57,-304.47 89.68,-72.64 179.36,-145.27 269.04,-217.9 -111.01,151.04 -150.43,330.64 -159.47,522.37zm22.28 -281.83c14.84,-52.37 34.13,-103 58.91,-151.48l-152.5 123.51c32.58,26.69 53.93,86.18 67.72,145.92 6.5,-40.15 14.98,-79.52 25.87,-117.95z"/>
   </g>
   <g>
    <path fill="#FFF8D5" d="M7908.99 6856.76c-111.01,151.04 -150.43,330.64 -159.47,522.37 0,0 -17.9,-304.93 -109.57,-304.47 89.68,-72.64 179.36,-145.27 269.04,-217.9z"/>
    <path id="1" fill="#FFF8D5" d="M7749.52 7379.13c0,0 -17.9,-304.93 -109.57,-304.47 89.68,-72.64 179.36,-145.27 269.04,-217.9 -111.01,151.04 -150.43,330.64 -159.47,522.37zm22.28 -281.83c14.84,-52.37 34.13,-103 58.91,-151.48l-152.5 123.51c32.58,26.69 53.93,86.18 67.72,145.92 6.5,-40.15 14.98,-79.52 25.87,-117.95z"/>
   </g>
   <g>
    <path fill="#FFF8D5" d="M8137.14 6671.76c-111.01,151.04 -150.43,330.64 -159.47,522.37 0,0 -17.9,-304.93 -109.57,-304.47l269.04 -217.9z"/>
    <path id="1" fill="#FFF8D5" d="M7977.67 7194.13c0,0 -17.9,-304.93 -109.57,-304.47l269.04 -217.9c-111.01,151.04 -150.43,330.64 -159.47,522.37zm22.28 -281.83c14.84,-52.37 34.13,-103 58.91,-151.48l-152.5 123.51c32.58,26.69 53.93,86.18 67.72,145.92 6.5,-40.15 14.98,-79.52 25.87,-117.95z"/>
   </g>
  </g>
  <g>
   <path fill="black" d="M1481.27 6753.89l-0.13 -0.17 0.17 -0.13c-0.19,-0.24 -0.37,-0.49 -0.56,-0.74 -43.66,-58.22 -31.86,-140.82 26.36,-184.48 5.04,-3.78 10.27,-7.13 15.63,-10.09l-0.13 -0.24 742.39 -409.49 2573.55 -1419.53c43.6,-23.94 94.81,-20.67 134.11,4.11l1177.32 666.15 1341.89 759.27 684.48 387.29c23.97,7.45 46.09,21.79 63.11,42.72 38.68,47.56 38.72,113.96 4.06,161.18l0.07 0.05c-45.53,61.96 -76.59,130.45 -97.3,203.56 -22.01,77.68 -32.79,160.75 -36.85,246.98 -3.42,72.77 -65.2,128.99 -137.97,125.57 -32.03,-1.51 -60.85,-14.32 -82.79,-34.4 -3.5,30.7 -5.89,62.01 -7.39,93.83 -3.42,72.77 -65.2,128.99 -137.97,125.57 -32.03,-1.51 -60.86,-14.32 -82.8,-34.4 -3.5,30.7 -5.89,62.02 -7.39,93.84 -3.42,72.77 -65.2,128.99 -137.97,125.57 -32.03,-1.51 -60.85,-14.32 -82.79,-34.4 -3.5,30.7 -5.89,62.01 -7.39,93.83 -3.42,72.77 -65.2,128.99 -137.97,125.57 -32.03,-1.51 -60.85,-14.32 -82.79,-34.4 -3.5,30.7 -5.89,62.02 -7.39,93.84 -3.42,72.77 -65.2,128.99 -137.97,125.57 -32.03,-1.51 -60.86,-14.32 -82.8,-34.4 -3.5,30.69 -5.89,62.01 -7.39,93.83 -3.42,72.77 -65.2,128.99 -137.97,125.57 -32.03,-1.51 -60.85,-14.32 -82.79,-34.4 -3.5,30.7 -5.89,62.01 -7.39,93.83 -3.42,72.77 -65.2,128.99 -137.97,125.57 -32.03,-1.51 -60.85,-14.32 -82.79,-34.4 -3.5,30.7 -5.89,62.02 -7.39,93.84 -3.42,72.77 -65.2,128.99 -137.97,125.57 -32.03,-1.51 -60.85,-14.32 -82.79,-34.4 -3.5,30.7 -5.89,62.01 -7.39,93.83 -3.42,72.77 -65.2,128.99 -137.97,125.57 -32.03,-1.51 -60.86,-14.32 -82.8,-34.4 -3.5,30.69 -5.89,62.01 -7.39,93.83 -3.42,72.77 -65.2,128.99 -137.97,125.57 -32.03,-1.51 -60.85,-14.32 -82.79,-34.4 -3.5,30.7 -5.89,62.02 -7.39,93.84 -3.42,72.77 -65.2,128.99 -137.97,125.57 -32.03,-1.51 -60.85,-14.32 -82.79,-34.4 -3.5,30.7 -5.89,62.01 -7.39,93.83 -3.42,72.77 -65.2,128.99 -137.97,125.57 -32.03,-1.51 -60.86,-14.32 -82.8,-34.4 -3.5,30.7 -5.89,62.02 -7.39,93.84 -3.42,72.77 -65.2,128.99 -137.97,125.57 -32.03,-1.51 -60.85,-14.32 -82.79,-34.4 -3.5,30.7 -5.89,62.01 -7.39,93.83 -3.42,72.77 -65.2,128.99 -137.97,125.57 -41.93,-1.97 -78.36,-23.32 -101.06,-54.98 -24.97,35.72 -67.1,58.32 -113.87,56.31 -68.25,-2.94 -122.14,-57.26 -125.99,-124.03l-0.1 0.01c-2.66,-45.04 -7.16,-89.23 -14.14,-132.24 -25.13,35.55 -67.3,57.91 -114,55.72 -68.07,-3.2 -121.66,-57.47 -125.49,-124.02l-0.08 0c-2.66,-45.04 -7.16,-89.23 -14.14,-132.24 -25.13,35.55 -67.3,57.91 -114,55.72 -68.07,-3.2 -121.66,-57.47 -125.49,-124.02l-0.08 0c-2.66,-45.04 -7.16,-89.22 -14.14,-132.23 -25.13,35.54 -67.3,57.91 -114,55.72 -68.07,-3.2 -121.66,-57.47 -125.49,-124.02l-0.08 0c-2.66,-45.04 -7.16,-89.23 -14.14,-132.24 -25.13,35.55 -67.3,57.91 -114,55.72 -68.07,-3.2 -121.66,-57.47 -125.49,-124.02l-0.08 0c-2.66,-45.04 -7.16,-89.23 -14.14,-132.24 -25.13,35.55 -67.3,57.91 -114,55.72 -68.07,-3.2 -121.66,-57.47 -125.49,-124.02l-0.08 0c-2.66,-45.04 -7.16,-89.22 -14.14,-132.22 -25.13,35.53 -67.29,57.89 -113.99,55.7 -68.07,-3.2 -121.66,-57.47 -125.49,-124.02l-0.08 0c-2.66,-45.04 -7.16,-89.23 -14.14,-132.24 -25.13,35.55 -67.3,57.91 -114,55.72 -68.07,-3.2 -121.66,-57.47 -125.49,-124.02l-0.08 0c-2.66,-45.04 -7.16,-89.23 -14.14,-132.24 -25.13,35.55 -67.3,57.91 -114,55.72 -68.07,-3.2 -121.66,-57.47 -125.49,-124.02l-0.08 0c-2.66,-45.04 -7.16,-89.22 -14.14,-132.23 -25.13,35.54 -67.3,57.91 -114,55.72 -68.07,-3.2 -121.66,-57.47 -125.49,-124.02l-0.08 0c-2.66,-45.04 -7.16,-89.23 -14.14,-132.24 -25.13,35.55 -67.3,57.91 -114,55.72 -68.07,-3.2 -121.66,-57.47 -125.49,-124.02l-0.08 0c-2.66,-45.04 -7.16,-89.23 -14.14,-132.24 -25.13,35.55 -67.3,57.91 -114,55.72 -68.07,-3.2 -121.66,-57.47 -125.49,-124.02l-0.08 0c-2.66,-45.04 -7.16,-89.23 -14.14,-132.24 -25.13,35.55 -67.3,57.91 -114,55.72 -68.07,-3.2 -121.66,-57.47 -125.49,-124.02l-0.08 0c-5.11,-86.51 -16.83,-169.46 -39.6,-246.37 -21.54,-72.78 -53.19,-140.67 -98.92,-201.67l-0.16 0.13zm104.83 -80.18c-0.02,-0.03 -0.04,-0.06 -0.06,-0.09l0.06 0.09zm0.01 0l0.06 0.08c-0.02,-0.03 -0.04,-0.06 -0.06,-0.08zm6391.56 520.42c0,0 -15.77,-268.7 -93.54,-301.25 -92.16,143.21 -126.28,309.58 -134.61,486.25 0,0 -15.77,-268.71 -93.54,-301.26 -92.16,143.22 -126.29,309.6 -134.62,486.27 0,0 -15.77,-268.7 -93.54,-301.25 -92.16,143.21 -126.28,309.58 -134.61,486.25 0,0 -15.77,-268.69 -93.53,-301.25 -92.16,143.22 -126.29,309.59 -134.62,486.26 0,0 -15.77,-268.72 -93.54,-301.26 -92.17,143.22 -126.29,309.59 -134.62,486.26 0,0 -15.77,-268.7 -93.54,-301.25 -92.16,143.21 -126.28,309.58 -134.61,486.25 0,0 -15.77,-268.69 -93.53,-301.25 -92.16,143.22 -126.29,309.59 -134.62,486.26 0,0 -15.77,-268.7 -93.54,-301.25 -92.16,143.21 -126.28,309.58 -134.61,486.25 0,0 -15.77,-268.72 -93.54,-301.26 -92.17,143.22 -126.29,309.59 -134.62,486.26 0,0 -15.77,-268.69 -93.53,-301.25 -92.16,143.22 -126.29,309.59 -134.62,486.26 0,0 -15.77,-268.7 -93.54,-301.25 -92.16,143.21 -126.28,309.58 -134.61,486.25 0,0 -15.77,-268.71 -93.54,-301.26 -92.16,143.22 -126.29,309.6 -134.62,486.27 0,0 -15.77,-268.7 -93.54,-301.25 -92.16,143.21 -126.28,309.58 -134.61,486.25 0,0 -17.9,-304.93 -109.51,-304.42 -91.67,0.63 -105.94,305.75 -105.94,305.75 -10.95,-185.33 -50.19,-358.97 -154.82,-505.62 -85.36,15.75 -98.89,305.08 -98.89,305.08 -10.95,-185.33 -50.19,-358.97 -154.82,-505.62 -85.36,15.75 -98.89,305.08 -98.89,305.08 -10.95,-185.33 -50.19,-358.97 -154.82,-505.61 -85.36,15.74 -98.89,305.08 -98.89,305.08 -10.95,-185.33 -50.19,-358.97 -154.82,-505.62 -85.36,15.75 -98.89,305.08 -98.89,305.08 -10.95,-185.33 -50.19,-358.97 -154.82,-505.62 -85.36,15.75 -98.89,305.08 -98.89,305.08 -10.95,-185.33 -50.19,-358.97 -154.82,-505.62 -85.35,15.77 -98.88,305.08 -98.88,305.08 -10.95,-185.33 -50.19,-358.97 -154.82,-505.62 -85.36,15.75 -98.89,305.08 -98.89,305.08 -10.95,-185.33 -50.19,-358.97 -154.82,-505.62 -85.36,15.75 -98.89,305.08 -98.89,305.08 -10.95,-185.33 -50.19,-358.97 -154.82,-505.61 -85.36,15.74 -98.89,305.08 -98.89,305.08 -10.95,-185.33 -50.19,-358.97 -154.82,-505.62 -85.36,15.75 -98.89,305.08 -98.89,305.08 -10.95,-185.33 -50.19,-358.97 -154.82,-505.62 -85.36,15.75 -98.89,305.08 -98.89,305.08 -10.95,-185.33 -50.19,-358.97 -154.82,-505.62 -85.36,15.75 -98.89,305.08 -98.89,305.08 -11.32,-191.54 -52.85,-370.58 -165.55,-520.26l742.39 -409.49 2573.55 -1419.53 1182.76 669.23 1341.89 759.27 707.87 400.53 2.51 -2.04c-111.01,151.04 -150.43,330.64 -159.47,522.37z"/>
  </g>
 </g>
 <g id="Cabeza">
  <metadata id="CorelCorpID_2Corel-Layer"/>
  <g>
   <path fill="black" d="M4911.89 154.42c3.68,-0.18 7.35,-0.31 11.08,-0.31 701.39,0 1398.6,184.5 1995.48,556.06 547.08,340.57 996.28,832.39 1240.76,1432.54 129.68,318.32 196.72,656.1 196.72,999.91 0,197.1 -21.95,394.5 -63.37,587.15 -246.68,1147.35 -1188.1,2122.55 -2384.99,1736.43l-90.17 417.99 -63.37 65.27 -369.12 91.14 -50.34 -31.79 -44.05 38.25 -348.26 0 -38.35 -31.84 -38.34 31.84 -348.25 0 -44.05 -38.25 -50.34 31.79 -369.13 -91.14 -63.37 -65.27 -90.61 -420.04c-376.15,121.61 -766.53,121.04 -1141.44,-40.12 -846.88,-364.05 -1310.09,-1398.46 -1310.09,-2282.35 0,-343.81 67.04,-681.59 196.72,-999.91 244.48,-600.15 693.68,-1091.97 1240.76,-1432.54 596.88,-371.56 1294.09,-556.06 1995.48,-556.06 10.38,0 20.43,0.76 30.64,1.25z"/>
  </g>
  <path id="craneo" fill="#FEEECB" d="M4016.2 5250.83c-1382.49,595.31 -2409.17,-804.8 -2409.17,-2109.15 0,-1562.85 1465.92,-2829.77 3274.22,-2829.77 10.47,0 20.83,1.06 31.26,1.41 3.5,-0.04 6.96,-0.47 10.46,-0.47 1808.3,0 3274.22,1266.92 3274.22,2829.77 0,1303.36 -1025.14,2702.29 -2406.04,2110.45l-119.33 553.18 -259.33 64.03 -105.74 -515.31 -75.53 533.35 -231.64 0 -95.66 -512.01 -95.67 512.01 -231.63 0 -75.54 -533.35 -105.73 515.31 -259.34 -64.03 -119.81 -555.42z"/>
  <path id="sombra" fill="#F8CD9F" stroke="#F8CD9F" stroke-width="20" stroke-miterlimit="22.9256" d="M4032.74 5267.37c0,0 -2155.49,288.6 -2195.18,-2150.71 -39.69,-2439.31 2905.8,-2631.11 3081.09,-2621.19 210.02,1.65 2974.49,317.83 3103.5,2621.19 129.01,2303.36 -2214.46,2152.95 -2214.46,2152.95 1380.9,591.84 2406.04,-807.09 2406.04,-2110.45 0,-1562.85 -1465.92,-2829.77 -3274.22,-2829.77 -3.5,0 -6.96,0.43 -10.46,0.47 -10.43,-0.35 -20.79,-1.41 -31.26,-1.41 -1808.3,0 -3274.22,1266.92 -3274.22,2829.77 0,1304.35 1026.68,2704.46 2409.17,2109.15z"/>
 </g>
 <g id="Cara">
  <metadata id="CorelCorpID_3Corel-Layer"/>
  <g id="nariz">
   <path fill="#F8CD9F" stroke="#F8CD9F" stroke-width="20" stroke-miterlimit="22.9256" d="M4885.07 4115.91c-55.12,176.39 -110.24,352.78 -165.36,529.17 -33.17,118.3 79.81,155.14 147.16,90.96 27.01,-29.21 54.02,-58.43 81.03,-87.64 33.08,-42.12 62.29,-25.93 90.96,-1.65 34.73,40.24 69.45,80.47 104.18,120.71 129.01,156.01 275.8,62.59 231.51,-62.84 -113.01,-194.02 -226.03,-388.03 -339.04,-582.05 -75.77,-123.76 -119.3,-91.52 -150.44,-6.66z"/>
   <path fill="#0E031C" stroke="black" stroke-width="20" stroke-miterlimit="22.9256" d="M4765.96 4102.88c-55.12,176.39 -110.24,352.78 -165.36,529.17 -33.17,118.3 79.81,155.14 147.16,90.96 27.01,-29.21 54.02,-58.43 81.03,-87.64 33.08,-42.12 62.29,-25.93 90.96,-1.65 34.73,40.24 69.45,80.47 104.18,120.71 129.01,156.01 275.8,62.59 231.51,-62.84 -113.01,-194.02 -226.03,-388.03 -339.04,-582.05 -75.77,-123.76 -119.3,-91.52 -150.44,-6.66z"/>
  </g>
  <ellipse fill="#F8CD9F" stroke="#F8CD9F" stroke-width="20" stroke-miterlimit="22.9256" cx="3599.38" cy="3308.44" rx="871.07" ry="859.9"/>
  <ellipse fill="#0E031C" stroke="black" stroke-width="20" stroke-miterlimit="22.9256" cx="3413.51" cy="3308.99" rx="886.35" ry="859.9"/>
  <ellipse fill="#F8CD9F" stroke="#F8CD9F" stroke-width="20" stroke-miterlimit="22.9256" cx="6492.27" cy="3308.44" rx="871.07" ry="859.9"/>
  <ellipse fill="#0E031C" stroke="black" stroke-width="20" stroke-miterlimit="22.9256" cx="6277.58" cy="3308.99" rx="886.35" ry="859.9"/>
  <g id="marca">
   <polyline fill="none" stroke="red" stroke-width="132.29" stroke-linecap="round" stroke-linejoin="round" stroke-miterlimit="22.9256" points="4588.28,1021.37 4098.53,1357.9 4588.28,1696.74 "/>
   <polyline fill="none" stroke="red" stroke-width="132.29" stroke-linecap="round" stroke-linejoin="round" stroke-miterlimit="22.9256" points="5225.79,1021.37 5715.54,1357.9 5225.79,1696.74 "/>
   <line fill="none" stroke="red" stroke-width="132.29" stroke-linecap="round" stroke-miterlimit="22.9256" x1="5025.27" y1="986.01" x2="4788.81" y2= "1732.09" />
  </g>
 </g>
</svg>
